<?xml version="1.0" encoding="UTF-8" standalone="no"?>
<svg
   xmlns:dc="http://purl.org/dc/elements/1.1/"
   xmlns:cc="http://creativecommons.org/ns#"
   xmlns:rdf="http://www.w3.org/1999/02/22-rdf-syntax-ns#"
   xmlns:svg="http://www.w3.org/2000/svg"
   xmlns="http://www.w3.org/2000/svg"
   xmlns:sodipodi="http://sodipodi.sourceforge.net/DTD/sodipodi-0.dtd"
   xmlns:inkscape="http://www.inkscape.org/namespaces/inkscape"
   width="48"
   height="48"
   viewBox="0 0 48 48"
   fill="none"
   version="1.1"
   id="svg284"
   sodipodi:docname="Terminal_RDM.svg"
   inkscape:version="1.0.2 (e86c870879, 2021-01-15, custom)">
  <metadata
     id="metadata288">
    <rdf:RDF>
      <cc:Work
         rdf:about="">
        <dc:format>image/svg+xml</dc:format>
        <dc:type
           rdf:resource="http://purl.org/dc/dcmitype/StillImage" />
        <dc:title />
      </cc:Work>
    </rdf:RDF>
  </metadata>
  <sodipodi:namedview
     pagecolor="#ffffff"
     bordercolor="#666666"
     borderopacity="1"
     objecttolerance="10"
     gridtolerance="10"
     guidetolerance="10"
     inkscape:pageopacity="0"
     inkscape:pageshadow="2"
     inkscape:window-width="1920"
     inkscape:window-height="1058"
     id="namedview286"
     showgrid="false"
     inkscape:zoom="8.3867417"
     inkscape:cx="21.239762"
     inkscape:cy="15.666609"
     inkscape:window-x="3833"
     inkscape:window-y="-6"
     inkscape:window-maximized="1"
     inkscape:current-layer="svg284"
     inkscape:document-rotation="0" />
  <g
     id="g4007"
     transform="matrix(0.9375,0,0,0.9375,0,1.5)">
    <path
       id="path150"
       d="M 0,13 H 16 V 6 H 2 C 0.9,6 0,6.9 0,8 Z"
       inkscape:connector-curvature="0"
       style="fill:#cccccc" />
    <path
       id="path152"
       d="M 32,6 H 16 v 7 h 16 z"
       inkscape:connector-curvature="0"
       style="fill:#999999" />
    <path
       id="path154"
       d="M 48,13 H 32 V 6 h 14 c 1.1,0 2,0.9 2,2 z"
       inkscape:connector-curvature="0"
       style="fill:#666666" />
    <path
       id="path156"
       d="M 46,42 H 2 C 0.9,42 0,41.1 0,40 V 12 h 48 v 28 c 0,1.1 -0.9,2 -2,2 z"
       style="fill:url(#paint0_linear)"
       inkscape:connector-curvature="0" />
    <g
       id="g171"
       style="filter:url(#filter0_dd)">
      <path
         id="path158"
         d="m 15.2,24.3 -8.80001,8.8 c -0.5,0.5 -0.5,1.2 0,1.6 l 1.8,1.8 C 8.69999,37 9.4,37 9.8,36.5 l 8.8,-8.8 c 0.5,-0.5 0.5,-1.2 0,-1.6 l -1.8,-1.8 c -0.4,-0.4 -1.2,-0.4 -1.6,0 z"
         style="fill:url(#paint1_linear)"
         inkscape:connector-curvature="0" />
      <mask
         height="13"
         width="13"
         y="24"
         x="6"
         maskUnits="userSpaceOnUse"
         mask-type="alpha"
         id="mask0">
        <path
           id="path160"
           d="m 15.2,24.3 -8.80001,8.8 c -0.5,0.5 -0.5,1.2 0,1.6 l 1.8,1.8 C 8.69999,37 9.4,37 9.8,36.5 l 8.8,-8.8 c 0.5,-0.5 0.5,-1.2 0,-1.6 l -1.8,-1.8 c -0.4,-0.4 -1.2,-0.4 -1.6,0 z"
           inkscape:connector-curvature="0"
           style="fill:url(#paint2_linear)" />
      </mask>
      <g
         id="g167"
         mask="url(#mask0)">
        <g
           id="g165"
           style="filter:url(#filter1_dd)">
          <path
             id="path163"
             d="m 9.8,17.3 8.8,8.8 c 0.5,0.5 0.5,1.2 0,1.6 l -1.8,1.8 c -0.5,0.5 -1.2,0.5 -1.6,0 L 6.39999,20.7 c -0.5,-0.5 -0.5,-1.2 0,-1.6 l 1.8,-1.8 C 8.59999,16.9 9.4,16.9 9.8,17.3 Z"
             style="fill:url(#paint3_linear)"
             inkscape:connector-curvature="0" />
        </g>
      </g>
      <path
         id="path169"
         d="m 9.8,17.3 8.8,8.8 c 0.5,0.5 0.5,1.2 0,1.6 l -1.8,1.8 c -0.5,0.5 -1.2,0.5 -1.6,0 L 6.39999,20.7 c -0.5,-0.5 -0.5,-1.2 0,-1.6 l 1.8,-1.8 C 8.59999,16.9 9.4,16.9 9.8,17.3 Z"
         style="fill:url(#paint4_linear)"
         inkscape:connector-curvature="0" />
    </g>
    <g
       id="g175"
       style="filter:url(#filter2_dd)">
      <path
         id="path173"
         d="M 40,32 H 24 c -0.6,0 -1,0.4 -1,1 v 3 c 0,0.6 0.4,1 1,1 h 16 c 0.6,0 1,-0.4 1,-1 v -3 c 0,-0.6 -0.4,-1 -1,-1 z"
         style="fill:url(#paint5_linear)"
         inkscape:connector-curvature="0" />
    </g>
  </g>
  <defs
     id="defs282">
    <filter
       id="filter0_dd"
       x="3.02499"
       y="15"
       width="18.95"
       height="25.875"
       filterUnits="userSpaceOnUse"
       color-interpolation-filters="sRGB">
      <feFlood
         flood-opacity="0"
         result="BackgroundImageFix"
         id="feFlood177" />
      <feColorMatrix
         in="SourceAlpha"
         type="matrix"
         values="0 0 0 0 0 0 0 0 0 0 0 0 0 0 0 0 0 0 127 0"
         id="feColorMatrix179" />
      <feOffset
         dy="0.5"
         id="feOffset181" />
      <feGaussianBlur
         stdDeviation="0.5"
         id="feGaussianBlur183" />
      <feColorMatrix
         type="matrix"
         values="0 0 0 0 0 0 0 0 0 0 0 0 0 0 0 0 0 0 0.1 0"
         id="feColorMatrix185" />
      <feBlend
         mode="normal"
         in2="BackgroundImageFix"
         result="effect1_dropShadow"
         id="feBlend187" />
      <feColorMatrix
         in="SourceAlpha"
         type="matrix"
         values="0 0 0 0 0 0 0 0 0 0 0 0 0 0 0 0 0 0 127 0"
         id="feColorMatrix189" />
      <feOffset
         dy="1"
         id="feOffset191" />
      <feGaussianBlur
         stdDeviation="1.5"
         id="feGaussianBlur193" />
      <feColorMatrix
         type="matrix"
         values="0 0 0 0 0 0 0 0 0 0 0 0 0 0 0 0 0 0 0.2 0"
         id="feColorMatrix195" />
      <feBlend
         mode="normal"
         in2="effect1_dropShadow"
         result="effect2_dropShadow"
         id="feBlend197" />
      <feBlend
         mode="normal"
         in="SourceGraphic"
         in2="effect2_dropShadow"
         result="shape"
         id="feBlend199" />
    </filter>
    <filter
       id="filter1_dd"
       x="3.02499"
       y="15"
       width="18.95"
       height="18.875"
       filterUnits="userSpaceOnUse"
       color-interpolation-filters="sRGB">
      <feFlood
         flood-opacity="0"
         result="BackgroundImageFix"
         id="feFlood202" />
      <feColorMatrix
         in="SourceAlpha"
         type="matrix"
         values="0 0 0 0 0 0 0 0 0 0 0 0 0 0 0 0 0 0 127 0"
         id="feColorMatrix204" />
      <feOffset
         dy="0.5"
         id="feOffset206" />
      <feGaussianBlur
         stdDeviation="0.5"
         id="feGaussianBlur208" />
      <feColorMatrix
         type="matrix"
         values="0 0 0 0 0 0 0 0 0 0 0 0 0 0 0 0 0 0 0.1 0"
         id="feColorMatrix210" />
      <feBlend
         mode="normal"
         in2="BackgroundImageFix"
         result="effect1_dropShadow"
         id="feBlend212" />
      <feColorMatrix
         in="SourceAlpha"
         type="matrix"
         values="0 0 0 0 0 0 0 0 0 0 0 0 0 0 0 0 0 0 127 0"
         id="feColorMatrix214" />
      <feOffset
         dy="1"
         id="feOffset216" />
      <feGaussianBlur
         stdDeviation="1.5"
         id="feGaussianBlur218" />
      <feColorMatrix
         type="matrix"
         values="0 0 0 0 0 0 0 0 0 0 0 0 0 0 0 0 0 0 0.2 0"
         id="feColorMatrix220" />
      <feBlend
         mode="normal"
         in2="effect1_dropShadow"
         result="effect2_dropShadow"
         id="feBlend222" />
      <feBlend
         mode="normal"
         in="SourceGraphic"
         in2="effect2_dropShadow"
         result="shape"
         id="feBlend224" />
    </filter>
    <filter
       id="filter2_dd"
       x="20"
       y="30"
       width="24"
       height="11"
       filterUnits="userSpaceOnUse"
       color-interpolation-filters="sRGB">
      <feFlood
         flood-opacity="0"
         result="BackgroundImageFix"
         id="feFlood227" />
      <feColorMatrix
         in="SourceAlpha"
         type="matrix"
         values="0 0 0 0 0 0 0 0 0 0 0 0 0 0 0 0 0 0 127 0"
         id="feColorMatrix229" />
      <feOffset
         dy="0.5"
         id="feOffset231" />
      <feGaussianBlur
         stdDeviation="0.5"
         id="feGaussianBlur233" />
      <feColorMatrix
         type="matrix"
         values="0 0 0 0 0 0 0 0 0 0 0 0 0 0 0 0 0 0 0.1 0"
         id="feColorMatrix235" />
      <feBlend
         mode="normal"
         in2="BackgroundImageFix"
         result="effect1_dropShadow"
         id="feBlend237" />
      <feColorMatrix
         in="SourceAlpha"
         type="matrix"
         values="0 0 0 0 0 0 0 0 0 0 0 0 0 0 0 0 0 0 127 0"
         id="feColorMatrix239" />
      <feOffset
         dy="1"
         id="feOffset241" />
      <feGaussianBlur
         stdDeviation="1.5"
         id="feGaussianBlur243" />
      <feColorMatrix
         type="matrix"
         values="0 0 0 0 0 0 0 0 0 0 0 0 0 0 0 0 0 0 0.2 0"
         id="feColorMatrix245" />
      <feBlend
         mode="normal"
         in2="effect1_dropShadow"
         result="effect2_dropShadow"
         id="feBlend247" />
      <feBlend
         mode="normal"
         in="SourceGraphic"
         in2="effect2_dropShadow"
         result="shape"
         id="feBlend249" />
    </filter>
    <linearGradient
       id="paint0_linear"
       x1="36.4462"
       y1="47.8257"
       x2="11.8217"
       y2="5.1748"
       gradientUnits="userSpaceOnUse">
      <stop
         stop-color="#333333"
         id="stop252" />
      <stop
         offset="1"
         stop-color="#4D4D4D"
         id="stop254" />
    </linearGradient>
    <linearGradient
       id="paint1_linear"
       x1="14.5276"
       y1="33.9959"
       x2="10.4841"
       y2="26.9924"
       gradientUnits="userSpaceOnUse">
      <stop
         stop-color="#999999"
         id="stop257" />
      <stop
         offset="1"
         stop-color="#B3B3B3"
         id="stop259" />
    </linearGradient>
    <linearGradient
       id="paint2_linear"
       x1="14.5276"
       y1="33.9959"
       x2="10.4841"
       y2="26.9924"
       gradientUnits="userSpaceOnUse">
      <stop
         stop-color="#999999"
         id="stop262" />
      <stop
         offset="1"
         stop-color="#B3B3B3"
         id="stop264" />
    </linearGradient>
    <linearGradient
       id="paint3_linear"
       x1="16.2747"
       y1="30.0336"
       x2="8.73699"
       y2="16.9781"
       gradientUnits="userSpaceOnUse">
      <stop
         stop-color="#CCCCCC"
         id="stop267" />
      <stop
         offset="1"
         stop-color="#E6E6E6"
         id="stop269" />
    </linearGradient>
    <linearGradient
       id="paint4_linear"
       x1="16.2747"
       y1="30.0336"
       x2="8.73699"
       y2="16.9781"
       gradientUnits="userSpaceOnUse">
      <stop
         stop-color="#CCCCCC"
         id="stop272" />
      <stop
         offset="1"
         stop-color="#E6E6E6"
         id="stop274" />
    </linearGradient>
    <linearGradient
       id="paint5_linear"
       x1="35.1496"
       y1="39.9553"
       x2="28.8504"
       y2="29.0447"
       gradientUnits="userSpaceOnUse">
      <stop
         stop-color="#CCCCCC"
         id="stop277" />
      <stop
         offset="1"
         stop-color="#E6E6E6"
         id="stop279" />
    </linearGradient>
    <filter
       id="a"
       width="200%"
       height="200%">
      <feOffset
         result="offOut"
         in="SourceAlpha"
         dy="2.2"
         id="feOffset769" />
      <feGaussianBlur
         result="blurOut"
         in="offOut"
         stdDeviation="1.5"
         id="feGaussianBlur771" />
      <feColorMatrix
         values="0 0 0 0 0 0 0 0 0 0 0 0 0 0 0 0 0 0 0.4 0"
         id="feColorMatrix773" />
      <feMerge
         id="feMerge779">
        <feMergeNode
           id="feMergeNode775" />
        <feMergeNode
           in="SourceGraphic"
           id="feMergeNode777" />
      </feMerge>
    </filter>
  </defs>
  <g
     id="g803"
     transform="matrix(0.33333333,0,0,0.33333333,-1.2662981,14.234493)">
    <path
       fill="#ffffff"
       filter="url(#a)"
       d="M 31.059,5.395 C 47.949,2.668 63.876,14.167 66.604,31.057 69.331,47.947 57.832,63.874 40.942,66.602 24.051,69.329 8.124,57.83 5.397,40.94 2.67,24.049 14.169,8.122 31.059,5.395 Z"
       id="path784" />
    <path
       fill="#0068c3"
       d="M 55.364,17.202 C 50.317,12.005 43.562,9.093 36.344,9.002 29.153,8.912 22.359,11.671 17.195,16.77 11.91,21.989 9,28.955 9,36.392 l 0.044,1.26 c 0,1.181 0.961,2.142 2.142,2.142 1.181,0 2.141,-0.96 2.142,-2.14 l 0.01,-0.913 c 0,-9.945 8.453,-20.593 21.035,-20.593 13.132,0 21.261,10.712 21.261,20.637 0,5.173 -2.063,9.919 -5.808,13.363 C 46.17,53.509 41.26,55.36 36,55.36 c -3.13,0 -6.219,-0.755 -8.958,-2.186 l 18.87,-8.686 c 1.267,-0.583 2.115,-1.81 2.213,-3.201 0.098,-1.391 -0.569,-2.725 -1.754,-3.487 L 30.665,29.385 c -0.554,-0.357 -1.213,-0.477 -1.858,-0.337 -0.644,0.139 -1.195,0.521 -1.552,1.075 -0.737,1.144 -0.406,2.673 0.721,3.397 l 8.454,6.923 -18.419,8.478 c -1.427,0.657 -2.298,2.1 -2.218,3.675 0.048,0.949 0.493,1.884 1.253,2.634 5.112,5.039 11.794,7.77 18.939,7.77 0.445,0 0.892,-0.011 1.341,-0.032 14.156,-0.673 25.432,-12.315 25.671,-26.505 0.121,-7.227 -2.59,-14.067 -7.633,-19.261 z"
       id="path786" />
  </g>
</svg>
